<?xml version="1.0" encoding="UTF-8" standalone="no"?>
<svg width="17px" height="18px" viewBox="0 0 17 18" version="1.1" xmlns="http://www.w3.org/2000/svg" xmlns:xlink="http://www.w3.org/1999/xlink">
    <!-- Generator: Sketch 40 (33762) - http://www.bohemiancoding.com/sketch -->
    <title>cut</title>
    <desc>Created with Sketch.</desc>
    <defs></defs>
    <g id="Page-1" stroke="none" stroke-width="1" fill="none" fill-rule="evenodd">
        <g id="Artboard" transform="translate(-59.000000, -29.000000)" fill="#000000">
            <g id="cut" transform="translate(59.000000, 29.000000)">
                <path d="M6.17148831,13.5020632 C6.17148831,14.7700149 5.13984824,15.8029254 3.87189653,15.8029254 C2.60394482,15.8029254 1.57230476,14.7700149 1.57230476,13.5020632 C1.57230476,12.2341115 2.60394482,11.2024714 3.87189653,11.2024714 C4.54779865,11.2024714 5.18431549,11.4972257 5.62390596,12.0130457 C5.64550434,12.0727589 5.67345518,12.1261196 5.70648799,12.1743983 C5.74079129,12.225218 5.78525853,12.2709558 5.83734873,12.315423 C6.05587348,12.6762429 6.17148831,13.0840711 6.17148831,13.5020632 M5.80050444,5.64914782 C5.76366016,5.68599211 5.73316833,5.72029541 5.71029946,5.75332822 C5.68361912,5.79017251 5.66075025,5.82955779 5.6683732,5.82955779 C5.22751224,6.38095162 4.57193801,6.69857479 3.87189653,6.69857479 C2.60394482,6.69857479 1.57230476,5.66566423 1.57230476,4.39771252 C1.57230476,3.1310313 2.60394482,2.09939123 3.87189653,2.09939123 C5.13984824,2.09939123 6.17148831,3.1310313 6.17148831,4.39771252 C6.17148831,4.84238496 6.04316855,5.27435248 5.80050444,5.64914782 M7.36066947,11.9457096 L10.2891551,9.8964049 L15.3520685,13.439809 C15.6785851,13.6761207 16.1791593,13.5884567 16.4142004,13.2543171 C16.6543235,12.9112841 16.5717415,12.4361198 16.227438,12.1947262 L11.614279,8.96640425 L16.227438,5.73808231 C16.5717415,5.49541821 16.6543235,5.01898345 16.4142004,4.6784914 C16.1702658,4.33418788 15.696372,4.25414684 15.3546095,4.48918799 L10.2891551,8.0364036 L7.35050553,5.97947592 C7.57919422,5.4801723 7.69607955,4.94910635 7.69607955,4.39771252 C7.69607955,2.29123563 5.97964391,0.5748 3.87189653,0.5748 C1.76541965,0.5748 0.051525,2.29123563 0.051525,4.39771252 C0.051525,6.5054599 1.76541965,8.22062504 3.87189653,8.22062504 C4.83747098,8.22062504 5.74841424,7.86488708 6.45607868,7.21185384 L8.96149027,8.96640425 L6.47513607,10.7069792 C5.76493065,10.0425116 4.84763492,9.67915065 3.87189653,9.67915065 C1.76541965,9.67915065 0.051525,11.3943158 0.051525,13.5020632 C0.051525,15.6098106 1.76541965,17.3249757 3.87189653,17.3249757 C5.97964391,17.3249757 7.69607955,15.6098106 7.69607955,13.5020632 C7.69607955,12.9633743 7.5817352,12.4399313 7.36066947,11.9457096" id="Fill-6"></path>
            </g>
        </g>
    </g>
</svg>