<?xml version="1.0" encoding="UTF-8" standalone="no"?>
<svg width="29px" height="29px" viewBox="0 0 29 29" version="1.1" xmlns="http://www.w3.org/2000/svg" xmlns:xlink="http://www.w3.org/1999/xlink">
    <!-- Generator: Sketch 40 (33762) - http://www.bohemiancoding.com/sketch -->
    <title>cut</title>
    <desc>Created with Sketch.</desc>
    <defs>
        <polygon id="path-1" points="0.0002 29 28.616 29 28.616 0.384 0.0002 0.384 0.0002 29"></polygon>
    </defs>
    <g id="Page-1" stroke="none" stroke-width="1" fill="none" fill-rule="evenodd">
        <g id="Artboard" transform="translate(-91.000000, -12.000000)">
            <g id="cut" transform="translate(91.000000, 11.000000)">
                <g id="Group-3" transform="translate(0.000000, 0.616200)">
                    <mask id="mask-2" fill="white">
                        <use xlink:href="#path-1"></use>
                    </mask>
                    <g id="Clip-2"></g>
                    <path d="M28.6162,14.6924 C28.6162,22.5944 22.2102,29.0004 14.3082,29.0004 C6.4062,29.0004 0.0002,22.5944 0.0002,14.6924 C0.0002,6.7904 6.4062,0.3834 14.3082,0.3834 C22.2102,0.3834 28.6162,6.7904 28.6162,14.6924" id="Fill-1" fill="#E6E6E6" mask="url(#mask-2)"></path>
                </g>
                <path d="M25.5566,15.4355 C25.5566,21.6485 20.5196,26.6835 14.3086,26.6835 C8.0956,26.6835 3.0586,21.6485 3.0586,15.4355 C3.0586,9.2245 8.0956,4.1885 14.3086,4.1885 C20.5196,4.1885 25.5566,9.2245 25.5566,15.4355" id="Fill-4" fill="#4D4D4D"></path>
                <path d="M12.8857,18.9414 C12.8857,19.9394 12.0737,20.7524 11.0757,20.7524 C10.0777,20.7524 9.2657,19.9394 9.2657,18.9414 C9.2657,17.9434 10.0777,17.1314 11.0757,17.1314 C11.6077,17.1314 12.1087,17.3634 12.4547,17.7694 C12.4717,17.8164 12.4937,17.8584 12.5197,17.8964 C12.5467,17.9364 12.5817,17.9724 12.6227,18.0074 C12.7947,18.2914 12.8857,18.6124 12.8857,18.9414 M12.5937,12.7604 C12.5647,12.7894 12.5407,12.8164 12.5227,12.8424 C12.5017,12.8714 12.4837,12.9024 12.4897,12.9024 C12.1427,13.3364 11.6267,13.5864 11.0757,13.5864 C10.0777,13.5864 9.2657,12.7734 9.2657,11.7754 C9.2657,10.7784 10.0777,9.9664 11.0757,9.9664 C12.0737,9.9664 12.8857,10.7784 12.8857,11.7754 C12.8857,12.1254 12.7847,12.4654 12.5937,12.7604 M13.8217,17.7164 L16.1267,16.1034 L20.1117,18.8924 C20.3687,19.0784 20.7627,19.0094 20.9477,18.7464 C21.1367,18.4764 21.0717,18.1024 20.8007,17.9124 L17.1697,15.3714 L20.8007,12.8304 C21.0717,12.6394 21.1367,12.2644 20.9477,11.9964 C20.7557,11.7254 20.3827,11.6624 20.1137,11.8474 L16.1267,14.6394 L13.8137,13.0204 C13.9937,12.6274 14.0857,12.2094 14.0857,11.7754 C14.0857,10.1174 12.7347,8.7664 11.0757,8.7664 C9.4177,8.7664 8.0687,10.1174 8.0687,11.7754 C8.0687,13.4344 9.4177,14.7844 11.0757,14.7844 C11.8357,14.7844 12.5527,14.5044 13.1097,13.9904 L15.0817,15.3714 L13.1247,16.7414 C12.5657,16.2184 11.8437,15.9324 11.0757,15.9324 C9.4177,15.9324 8.0687,17.2824 8.0687,18.9414 C8.0687,20.6004 9.4177,21.9504 11.0757,21.9504 C12.7347,21.9504 14.0857,20.6004 14.0857,18.9414 C14.0857,18.5174 13.9957,18.1054 13.8217,17.7164" id="Fill-6" fill="#FFFFFF"></path>
            </g>
        </g>
    </g>
</svg>