<?xml version="1.0" encoding="UTF-8" standalone="no"?>
<svg width="20px" height="20px" viewBox="0 0 20 20" version="1.1" xmlns="http://www.w3.org/2000/svg" xmlns:xlink="http://www.w3.org/1999/xlink">
    <!-- Generator: Sketch 40 (33762) - http://www.bohemiancoding.com/sketch -->
    <title>speed</title>
    <desc>Created with Sketch.</desc>
    <defs></defs>
    <g id="Page-1" stroke="none" stroke-width="1" fill="none" fill-rule="evenodd">
        <g id="Artboard" transform="translate(-49.000000, -105.000000)">
            <g id="speed" transform="translate(50.000000, 106.000000)">
                <path d="M17.6594242,9.15093626 C17.6594242,13.8507165 13.8502813,17.6584088 9.1505011,17.6584088 C4.45072088,17.6584088 0.640127473,13.8507165 0.640127473,9.15093626 C0.640127473,4.45115604 4.45072088,0.642013187 9.1505011,0.642013187 C13.8502813,0.642013187 17.6594242,4.45115604 17.6594242,9.15093626 L17.6594242,9.15093626 Z" id="Stroke-6" stroke="#000000" stroke-width="1.5"></path>
                <path d="M0.640272527,9.15093626 L2.8364044,9.15093626" id="Stroke-8" stroke="#000000" stroke-width="1.5" stroke-linecap="round" stroke-linejoin="round"></path>
                <path d="M3.13275165,3.13333187 L4.68483956,4.68541978" id="Stroke-10" stroke="#000000" stroke-width="1.5" stroke-linecap="round" stroke-linejoin="round"></path>
                <path d="M15.1670901,3.13333187 L13.6150022,4.68541978" id="Stroke-12" stroke="#000000" stroke-width="1.5" stroke-linecap="round" stroke-linejoin="round"></path>
                <path d="M17.6594242,9.15093626 L15.4632923,9.15093626" id="Stroke-14" stroke="#000000" stroke-width="1.5" stroke-linecap="round" stroke-linejoin="round"></path>
                <path d="M9.49225055,9.15369231 C9.52271209,9.27118681 9.50095385,9.39883516 9.42987692,9.49602198 C9.36895385,9.58015385 9.27901978,9.63092308 9.18183297,9.63527473 L9.18908571,9.81949451 L9.15862418,9.63527473 C9.08029451,9.63527473 8.99036044,9.60626374 8.92363516,9.56274725 C8.8220967,9.48586813 8.78148132,9.33646154 8.82354725,9.18705495 L9.13976703,8.06432967 L9.49225055,9.15369231 Z M9.15862418,10.89 L9.26451429,10.8870989 C9.74464615,10.8566374 10.1769099,10.6056923 10.4510637,10.2038901 C10.7339209,9.78468132 10.8078989,9.26828571 10.6541407,8.7867033 L9.23985495,4.34512088 C9.21664615,4.26824176 9.14556923,4.21602198 9.06578901,4.21602198 L9.06143736,4.21602198 C8.97875604,4.21892308 8.90912967,4.27259341 8.88737143,4.35092308 L7.62974505,8.85342857 C7.44987692,9.48441758 7.66165714,10.1618242 8.1620967,10.5404176 C8.46090989,10.7652527 8.81484396,10.89 9.15862418,10.89 L9.15862418,10.89 Z" id="Fill-16" fill="#000000"></path>
            </g>
        </g>
    </g>
</svg>