<?xml version="1.0" encoding="UTF-8" standalone="no"?>
<svg width="29px" height="29px" viewBox="0 0 29 29" version="1.1" xmlns="http://www.w3.org/2000/svg" xmlns:xlink="http://www.w3.org/1999/xlink">
    <!-- Generator: Sketch 40 (33762) - http://www.bohemiancoding.com/sketch -->
    <title>speed</title>
    <desc>Created with Sketch.</desc>
    <defs>
        <polygon id="path-1" points="0.0002 29 28.616 29 28.616 0.384 0.0002 0.384 0.0002 29"></polygon>
    </defs>
    <g id="Page-1" stroke="none" stroke-width="1" fill="none" fill-rule="evenodd">
        <g id="Artboard" transform="translate(-42.000000, -58.000000)">
            <g id="speed" transform="translate(42.000000, 57.000000)">
                <g id="Group-3" transform="translate(0.000000, 0.616200)">
                    <mask id="mask-2" fill="white">
                        <use xlink:href="#path-1"></use>
                    </mask>
                    <g id="Clip-2"></g>
                    <path d="M28.6162,14.6924 C28.6162,22.5934 22.2102,29.0004 14.3072,29.0004 C6.4062,29.0004 0.0002,22.5934 0.0002,14.6924 C0.0002,6.7904 6.4062,0.3834 14.3072,0.3834 C22.2102,0.3834 28.6162,6.7904 28.6162,14.6924" id="Fill-1" fill="#E6E6E6" mask="url(#mask-2)"></path>
                </g>
                <path d="M25.5562,15.3086 C25.5562,21.5206 20.5202,26.5566 14.3082,26.5566 C8.0952,26.5566 3.0592,21.5206 3.0592,15.3086 C3.0592,9.0956 8.0952,4.0606 14.3082,4.0606 C20.5202,4.0606 25.5562,9.0956 25.5562,15.3086" id="Fill-4" fill="#4D4D4D"></path>
                <path d="M20.1743,15.3086 C20.1743,18.5486 17.5483,21.1736 14.3083,21.1736 C11.0683,21.1736 8.4413,18.5486 8.4413,15.3086 C8.4413,12.0686 11.0683,9.4426 14.3083,9.4426 C17.5483,9.4426 20.1743,12.0686 20.1743,15.3086 L20.1743,15.3086 Z" id="Stroke-6" stroke="#FFFFFF" stroke-width="1.5"></path>
                <path d="M8.4414,15.3086 L9.9554,15.3086" id="Stroke-8" stroke="#FFFFFF" stroke-width="1.5" stroke-linecap="round" stroke-linejoin="round"></path>
                <path d="M10.1597,11.1601 L11.2297,12.2301" id="Stroke-10" stroke="#FFFFFF" stroke-width="1.5" stroke-linecap="round" stroke-linejoin="round"></path>
                <path d="M18.4561,11.1601 L17.3861,12.2301" id="Stroke-12" stroke="#FFFFFF" stroke-width="1.5" stroke-linecap="round" stroke-linejoin="round"></path>
                <path d="M20.1743,15.3086 L18.6603,15.3086" id="Stroke-14" stroke="#FFFFFF" stroke-width="1.5" stroke-linecap="round" stroke-linejoin="round"></path>
                <path d="M14.5439,15.3105 C14.5649,15.3915 14.5499,15.4795 14.5009,15.5465 C14.4589,15.6045 14.3969,15.6395 14.3299,15.6425 L14.3349,15.7695 L14.3139,15.6425 C14.2599,15.6425 14.1979,15.6225 14.1519,15.5925 C14.0819,15.5395 14.0539,15.4365 14.0829,15.3335 L14.3009,14.5595 L14.5439,15.3105 Z M14.3139,16.5075 L14.3869,16.5055 C14.7179,16.4845 15.0159,16.3115 15.2049,16.0345 C15.3999,15.7455 15.4509,15.3895 15.3449,15.0575 L14.3699,11.9955 C14.3539,11.9425 14.3049,11.9065 14.2499,11.9065 L14.2469,11.9065 C14.1899,11.9085 14.1419,11.9455 14.1269,11.9995 L13.2599,15.1035 C13.1359,15.5385 13.2819,16.0055 13.6269,16.2665 C13.8329,16.4215 14.0769,16.5075 14.3139,16.5075 L14.3139,16.5075 Z" id="Fill-16" fill="#FFFFFF"></path>
            </g>
        </g>
    </g>
</svg>