<?xml version="1.0" encoding="UTF-8" standalone="no"?>
<svg width="29px" height="29px" viewBox="0 0 29 29" version="1.1" xmlns="http://www.w3.org/2000/svg" xmlns:xlink="http://www.w3.org/1999/xlink">
    <!-- Generator: Sketch 40 (33762) - http://www.bohemiancoding.com/sketch -->
    <title>volume</title>
    <desc>Created with Sketch.</desc>
    <defs>
        <polygon id="path-1" points="0.0002 29 28.616 29 28.616 0.384 0.0002 0.384 0.0002 29"></polygon>
    </defs>
    <g id="Page-1" stroke="none" stroke-width="1" fill="none" fill-rule="evenodd">
        <g id="Artboard" transform="translate(-13.000000, -12.000000)">
            <g id="volume" transform="translate(13.000000, 11.000000)">
                <g id="Group-3" transform="translate(0.000000, 0.616200)">
                    <mask id="mask-2" fill="white">
                        <use xlink:href="#path-1"></use>
                    </mask>
                    <g id="Clip-2"></g>
                    <path d="M28.6162,14.6924 C28.6162,22.5944 22.2102,29.0004 14.3082,29.0004 C6.4062,29.0004 0.0002,22.5944 0.0002,14.6924 C0.0002,6.7904 6.4062,0.3834 14.3082,0.3834 C22.2102,0.3834 28.6162,6.7904 28.6162,14.6924" id="Fill-1" fill="#E5E5E5" mask="url(#mask-2)"></path>
                </g>
                <path d="M25.5566,15.3086 C25.5566,21.5206 20.5206,26.5566 14.3076,26.5566 C8.0956,26.5566 3.0596,21.5206 3.0596,15.3086 C3.0596,9.0966 8.0956,4.0606 14.3076,4.0606 C20.5206,4.0606 25.5566,9.0966 25.5566,15.3086" id="Fill-4" fill="#4D4D4E"></path>
                <path d="M20.0703,14.9473 C20.0703,16.8513 19.1983,18.6113 17.6763,19.7753 C17.5533,19.8703 17.4743,20.0083 17.4543,20.1623 C17.4333,20.3153 17.4743,20.4673 17.5683,20.5903 C17.6803,20.7353 17.9453,20.8013 17.9973,20.8133 L18.0253,20.8203 L18.0533,20.8153 C18.0913,20.8093 18.2793,20.7763 18.3833,20.6973 C20.1933,19.3113 21.2303,17.2173 21.2303,14.9473 C21.2303,12.6873 20.1993,10.5963 18.3983,9.2113 C18.2753,9.1153 18.1253,9.0743 17.9683,9.0943 C17.8143,9.1143 17.6783,9.1933 17.5853,9.3163 C17.4893,9.4393 17.4493,9.5923 17.4683,9.7463 C17.4893,9.9003 17.5683,10.0363 17.6913,10.1293 C19.2033,11.2953 20.0703,13.0513 20.0703,14.9473" id="Fill-6" fill="#FEFEFE"></path>
                <path d="M16.0977,17.1328 C15.9727,17.2278 15.8947,17.3638 15.8727,17.5178 C15.8537,17.6708 15.8947,17.8238 15.9887,17.9468 C16.0997,18.0918 16.2677,18.1758 16.4507,18.1758 C16.5767,18.1758 16.6997,18.1348 16.8007,18.0568 C17.7817,17.3068 18.3427,16.1758 18.3427,14.9478 C18.3427,13.7288 17.7867,12.5998 16.8187,11.8528 C16.5677,11.6578 16.2017,11.7028 16.0027,11.9568 C15.8087,12.2098 15.8557,12.5748 16.1087,12.7718 C16.7907,13.2968 17.1817,14.0908 17.1817,14.9478 C17.1817,15.8108 16.7867,16.6068 16.0977,17.1328" id="Fill-8" fill="#FEFEFE"></path>
                <path d="M7.9658,16.1963 C8.2858,16.1963 8.5458,15.9353 8.5458,15.6153 L8.5458,13.7403 C8.5458,13.4233 8.8038,13.1643 9.1208,13.1643 L10.3598,13.1643 L10.5178,12.8373 C11.1778,11.4673 12.3818,10.5263 13.7378,10.3193 L13.7338,20.0453 C12.2808,19.8213 11.0368,18.7853 10.4058,17.2703 L10.2578,16.9123 L9.1208,16.9123 C8.8008,16.9123 8.5408,17.1733 8.5408,17.4923 C8.5408,17.8123 8.8008,18.0743 9.1208,18.0743 L9.4968,18.0743 C10.3238,19.7643 11.8348,20.9273 13.5578,21.1923 C13.6178,21.2013 13.6768,21.2073 13.7358,21.2073 C14.0138,21.2073 14.2838,21.1063 14.4968,20.9253 C14.7518,20.7053 14.8998,20.3833 14.8998,20.0473 L14.8998,10.3193 C14.8998,9.9813 14.7518,9.6623 14.4958,9.4403 C14.2388,9.2193 13.8978,9.1233 13.5638,9.1733 C11.9568,9.4173 10.4968,10.4723 9.6428,12.0043 L9.1208,12.0043 C8.1638,12.0043 7.3858,12.7833 7.3858,13.7403 L7.3858,15.6153 C7.3858,15.9353 7.6458,16.1963 7.9658,16.1963" id="Fill-10" fill="#FEFEFE"></path>
            </g>
        </g>
    </g>
</svg>