<?xml version="1.0" encoding="UTF-8" standalone="no"?>
<svg width="20px" height="17px" viewBox="0 0 20 17" version="1.1" xmlns="http://www.w3.org/2000/svg" xmlns:xlink="http://www.w3.org/1999/xlink">
    <!-- Generator: Sketch 40 (33762) - http://www.bohemiancoding.com/sketch -->
    <title>vol</title>
    <desc>Created with Sketch.</desc>
    <defs></defs>
    <g id="Page-1" stroke="none" stroke-width="1" fill="none" fill-rule="evenodd">
        <g id="Artboard" transform="translate(-20.000000, -80.000000)" fill="#000000">
            <g id="vol" transform="translate(20.000000, 80.000000)">
                <path d="M18.0973385,8.23472308 C18.0973385,10.8710308 16.8899538,13.3079538 14.7825692,14.9196462 C14.6122615,15.0511846 14.5028769,15.2422615 14.4751846,15.4554923 C14.4461077,15.6673385 14.5028769,15.8778 14.6330308,16.0481077 C14.7881077,16.2488769 15.1550308,16.3402615 15.2270308,16.3568769 L15.2658,16.3665692 L15.3045692,16.3596462 C15.3571846,16.3513385 15.6174923,16.3056462 15.7614923,16.1962615 C18.2676462,14.2771846 19.7034923,11.3778 19.7034923,8.23472308 C19.7034923,5.10549231 18.2759538,2.21026154 15.7822615,0.292569231 C15.6119538,0.159646154 15.4042615,0.102876923 15.1868769,0.130569231 C14.9736462,0.158261538 14.7853385,0.267646154 14.6565692,0.437953846 C14.5236462,0.608261538 14.4682615,0.820107692 14.4945692,1.03333846 C14.5236462,1.24656923 14.6330308,1.43487692 14.8033385,1.56364615 C16.8968769,3.17810769 18.0973385,5.60949231 18.0973385,8.23472308" id="Fill-6"></path>
                <path d="M12.5968154,11.2608 C12.4237385,11.3923385 12.3157385,11.5806462 12.2852769,11.7938769 C12.2589692,12.0057231 12.3157385,12.2175692 12.4458923,12.3878769 C12.5995846,12.5886462 12.8322,12.7049538 13.0855846,12.7049538 C13.2600462,12.7049538 13.4303538,12.6481846 13.5702,12.5401846 C14.9285077,11.5017231 15.7052769,9.93572308 15.7052769,8.23541538 C15.7052769,6.54756923 14.9354308,4.98433846 13.5951231,3.95003077 C13.2475846,3.68003077 12.7408154,3.74233846 12.4652769,4.09403077 C12.1966615,4.44433846 12.2617385,4.94972308 12.6120462,5.22249231 C13.5563538,5.94941538 14.0977385,7.0488 14.0977385,8.23541538 C14.0977385,9.43033846 13.5508154,10.5324923 12.5968154,11.2608" id="Fill-8"></path>
                <path d="M1.33726154,9.96410769 C1.78033846,9.96410769 2.14033846,9.60272308 2.14033846,9.15964615 L2.14033846,6.56349231 C2.14033846,6.12456923 2.49756923,5.76595385 2.93649231,5.76595385 L4.65203077,5.76595385 L4.8708,5.31318462 C5.78464615,3.41626154 7.45172308,2.11333846 9.32926154,1.82672308 L9.32372308,15.2934923 C7.31187692,14.9833385 5.58941538,13.5488769 4.71572308,11.4511846 L4.5108,10.9554923 L2.93649231,10.9554923 C2.49341538,10.9554923 2.13341538,11.3168769 2.13341538,11.7585692 C2.13341538,12.2016462 2.49341538,12.5644154 2.93649231,12.5644154 L3.45710769,12.5644154 C4.60218462,14.9044154 6.69433846,16.5147231 9.08003077,16.8816462 C9.16310769,16.8941077 9.2448,16.9024154 9.32649231,16.9024154 C9.71141538,16.9024154 10.0852615,16.7625692 10.3801846,16.5119538 C10.7332615,16.2073385 10.9381846,15.7614923 10.9381846,15.2962615 L10.9381846,1.82672308 C10.9381846,1.35872308 10.7332615,0.917030769 10.3788,0.609646154 C10.0229538,0.303646154 9.5508,0.170723077 9.08833846,0.239953846 C6.86326154,0.5778 4.84172308,2.03856923 3.65926154,4.1598 L2.93649231,4.1598 C1.61141538,4.1598 0.534184615,5.23841538 0.534184615,6.56349231 L0.534184615,9.15964615 C0.534184615,9.60272308 0.894184615,9.96410769 1.33726154,9.96410769" id="Fill-10"></path>
            </g>
        </g>
    </g>
</svg>